<?xml version="1.0" encoding="UTF-8"?>
<svg xmlns="http://www.w3.org/2000/svg" xmlns:xlink="http://www.w3.org/1999/xlink" width="780.05pt" height="549.11pt" viewBox="0 0 780.05 549.11" version="1.1">
<defs>
<clipPath id="clip1">
  <path d="M 0 0 L 780.050781 0 L 780.050781 549.109375 L 0 549.109375 Z M 0 0 "/>
</clipPath>
</defs>
<g id="surface1">
<g clip-path="url(#clip1)" clip-rule="nonzero">
<path style="fill-rule:evenodd;fill:rgb(100%,100%,100%);fill-opacity:1;stroke-width:1.03;stroke-linecap:butt;stroke-linejoin:miter;stroke:rgb(90.19928%,90.59906%,90.99884%);stroke-opacity:1;stroke-miterlimit:2.613;" d="M 0.507813 0.514063 L 7800.039063 0.514063 L 7800.039063 5490.592188 L 0.507813 5490.592188 Z M 0.507813 0.514063 " transform="matrix(0.1,0,0,-0.1,0,549.11)"/>
</g>
<path style=" stroke:none;fill-rule:evenodd;fill:rgb(92.89856%,10.998535%,13.699341%);fill-opacity:1;" d="M 389.953125 131.976563 L 551.359375 411.503906 L 228.695313 411.503906 "/>
<path style=" stroke:none;fill-rule:evenodd;fill:rgb(13.299561%,11.799622%,12.199402%);fill-opacity:1;" d="M 327.578125 156.628906 C 328.796875 157.390625 330.015625 157.847656 331.078125 157.996094 C 331.992188 158.148438 333.054688 158.148438 333.96875 157.847656 C 334.878906 157.695313 335.796875 157.390625 336.707031 156.78125 C 337.621094 156.324219 338.683594 155.714844 339.597656 155.105469 C 341.574219 154.042969 343.246094 153.433594 344.769531 153.128906 C 346.289063 152.976563 347.8125 153.28125 349.183594 154.042969 C 349.941406 154.496094 350.550781 154.953125 351.007813 155.5625 C 351.464844 156.171875 351.921875 156.78125 352.070313 157.539063 C 352.222656 158.300781 352.375 158.910156 352.222656 159.671875 C 352.222656 160.433594 352.070313 161.039063 351.617188 161.804688 C 351.007813 162.867188 349.941406 163.628906 348.574219 164.238281 C 347.203125 164.695313 345.683594 164.695313 343.855469 164.238281 C 343.398438 164.238281 342.945313 164.085938 342.640625 163.933594 C 342.183594 163.78125 341.878906 163.628906 341.574219 163.476563 C 341.269531 163.324219 340.964844 163.324219 340.8125 163.324219 C 340.511719 163.324219 340.359375 163.324219 340.203125 163.628906 C 340.054688 164.085938 340.359375 164.539063 341.269531 164.996094 C 341.269531 164.996094 341.421875 165.148438 341.574219 165.148438 C 341.878906 165.304688 342.03125 165.453125 342.335938 165.605469 C 342.792969 165.910156 343.246094 166.0625 343.703125 166.367188 C 344.160156 166.671875 344.617188 166.976563 345.074219 167.28125 C 346.289063 168.039063 347.660156 168.039063 349.03125 167.128906 C 350.246094 166.367188 351.464844 164.996094 352.527344 163.019531 C 353.289063 161.804688 353.746094 160.585938 353.894531 159.214844 C 354.046875 157.996094 353.894531 156.628906 353.59375 155.410156 C 353.136719 154.347656 352.527344 153.128906 351.765625 152.0625 C 351.007813 151.148438 349.941406 150.238281 348.574219 149.476563 C 347.355469 148.714844 346.140625 148.257813 345.074219 148.105469 C 344.007813 147.804688 342.792969 147.804688 341.726563 147.953125 C 340.664063 148.257813 339.597656 148.5625 338.378906 149.171875 C 337.316406 149.628906 336.097656 150.390625 334.730469 151.148438 C 333.207031 152.214844 331.839844 152.824219 330.773438 152.976563 C 329.710938 153.28125 328.492188 152.976563 327.425781 152.367188 C 326.058594 151.605469 325.144531 150.542969 324.6875 149.324219 C 324.382813 148.105469 324.535156 146.890625 325.296875 145.519531 C 325.90625 144.605469 326.664063 143.996094 327.578125 143.695313 C 328.492188 143.542969 329.710938 143.542969 331.078125 143.695313 C 332.144531 143.847656 332.753906 143.996094 333.207031 144.148438 C 333.664063 144.148438 333.96875 144.148438 334.121094 143.847656 C 334.425781 143.390625 334.273438 143.085938 333.664063 142.78125 C 330.773438 141.105469 329.101563 140.195313 328.644531 140.347656 C 328.1875 140.347656 327.578125 140.804688 326.816406 141.5625 C 325.90625 142.324219 325.144531 143.238281 324.382813 144.453125 C 323.777344 145.671875 323.320313 146.890625 323.015625 148.105469 C 322.863281 149.171875 323.015625 150.238281 323.167969 151.304688 C 323.472656 152.367188 324.078125 153.433594 324.6875 154.347656 C 325.449219 155.257813 326.359375 156.019531 327.578125 156.628906 M 315.257813 178.996094 L 324.230469 180.972656 C 324.535156 181.125 324.6875 181.125 324.6875 181.125 C 324.839844 181.277344 324.839844 181.277344 324.839844 181.429688 L 324.839844 181.734375 L 322.253906 186.148438 C 322.253906 186.300781 322.101563 186.453125 321.953125 186.300781 L 321.796875 186.300781 C 321.644531 186.148438 321.644531 186.148438 321.496094 185.996094 L 314.953125 179.453125 C 314.648438 179.300781 314.648438 179.148438 314.648438 178.996094 Z M 310.539063 173.367188 C 309.78125 173.214844 309.171875 173.0625 308.714844 172.910156 C 308.257813 172.757813 307.953125 172.910156 307.800781 173.214844 C 307.648438 173.519531 307.648438 173.671875 307.800781 173.820313 C 307.953125 173.972656 308.105469 174.28125 308.410156 174.582031 L 326.96875 194.515625 C 327.578125 195.277344 328.1875 195.886719 328.644531 196.34375 C 328.949219 196.953125 329.253906 197.40625 329.253906 198.015625 C 329.40625 198.320313 329.253906 198.625 329.253906 198.929688 C 329.101563 199.234375 328.949219 199.386719 328.949219 199.691406 C 328.796875 199.84375 328.796875 200.148438 328.644531 200.300781 C 328.644531 200.449219 328.796875 200.601563 329.101563 200.757813 C 329.40625 201.058594 329.710938 200.90625 330.015625 200.300781 C 330.316406 199.996094 330.46875 199.539063 330.621094 199.082031 C 330.925781 198.472656 331.078125 198.015625 331.535156 197.257813 C 331.992188 196.34375 332.601563 195.582031 333.054688 194.972656 C 333.511719 194.363281 333.816406 193.90625 333.96875 193.605469 C 334.273438 193.148438 334.273438 192.84375 333.816406 192.539063 C 333.511719 192.386719 333.207031 192.386719 332.902344 192.691406 C 332.753906 192.84375 332.296875 193.300781 331.839844 193.757813 C 331.6875 194.214844 331.382813 194.363281 331.078125 194.515625 C 330.925781 194.515625 330.46875 194.515625 330.015625 194.214844 C 329.558594 193.90625 328.492188 193.148438 327.121094 191.625 L 323.777344 188.429688 C 323.625 188.277344 323.625 188.125 323.625 187.972656 L 323.625 187.667969 L 326.816406 182.191406 C 326.96875 181.886719 327.273438 181.734375 327.578125 181.734375 L 334.121094 183.257813 C 335.1875 183.5625 335.945313 183.863281 336.25 184.015625 C 336.707031 184.320313 336.859375 184.625 337.011719 184.929688 C 337.011719 185.234375 336.707031 185.691406 336.402344 186.453125 C 335.945313 187.0625 336.097656 187.515625 336.554688 187.667969 C 336.859375 187.972656 337.164063 187.820313 337.46875 187.214844 C 337.621094 187.0625 337.921875 186.453125 338.230469 185.691406 C 338.683594 184.929688 339.140625 183.863281 339.902344 182.648438 C 340.359375 181.734375 340.8125 181.125 341.269531 180.515625 C 341.726563 179.910156 342.03125 179.453125 342.183594 179.148438 C 342.640625 178.539063 342.640625 178.082031 342.183594 177.929688 C 341.878906 177.78125 341.574219 177.78125 341.421875 178.082031 C 341.121094 178.386719 340.8125 178.691406 340.203125 178.996094 C 339.597656 179.300781 338.839844 179.453125 338.078125 179.300781 C 337.316406 179.300781 336.25 178.996094 335.035156 178.84375 Z M 298.371094 190.105469 L 297.761719 189.800781 C 297.761719 189.800781 297.460938 189.648438 297.304688 189.648438 C 297.003906 189.648438 296.851563 189.648438 296.699219 189.800781 C 296.699219 189.953125 296.699219 190.105469 296.851563 190.257813 C 296.851563 190.410156 297.003906 190.5625 297.152344 190.863281 C 297.304688 191.015625 297.460938 191.167969 297.460938 191.472656 C 297.609375 191.777344 297.761719 191.929688 297.761719 192.234375 C 297.761719 192.539063 297.460938 193.148438 297.152344 193.757813 C 296.851563 194.214844 296.546875 194.667969 296.242188 195.277344 C 295.9375 195.734375 295.480469 196.34375 295.023438 197.105469 L 291.980469 202.582031 C 291.523438 203.191406 291.222656 203.800781 290.914063 204.253906 C 290.613281 204.863281 290.460938 205.320313 290.15625 205.625 C 289.546875 206.84375 289.089844 207.449219 288.632813 207.449219 C 288.480469 207.601563 288.328125 207.753906 288.179688 207.753906 C 288.023438 207.601563 287.722656 207.601563 287.570313 207.601563 C 287.265625 207.601563 287.113281 207.449219 286.960938 207.449219 C 286.808594 207.449219 286.65625 207.601563 286.503906 207.601563 C 286.351563 207.90625 286.503906 208.210938 286.808594 208.515625 C 287.265625 208.820313 287.722656 209.277344 288.328125 209.886719 L 292.132813 213.535156 C 292.285156 213.6875 292.4375 213.839844 292.4375 213.839844 C 292.589844 213.992188 292.742188 214.144531 292.742188 214.144531 C 293.046875 214.296875 293.199219 214.296875 293.351563 214.296875 C 293.351563 214.296875 293.503906 214.144531 293.503906 213.992188 L 293.65625 213.992188 C 293.808594 213.6875 293.808594 213.230469 293.351563 212.625 C 293.046875 212.015625 292.589844 211.253906 292.132813 210.1875 C 291.675781 209.277344 291.523438 208.363281 291.523438 207.601563 C 291.523438 206.84375 291.675781 205.929688 292.285156 205.015625 L 292.894531 203.800781 C 293.046875 203.648438 293.199219 203.648438 293.503906 203.648438 C 293.65625 203.648438 293.960938 203.648438 294.109375 203.800781 L 315.410156 216.125 C 316.320313 216.578125 316.929688 217.035156 317.234375 217.339844 C 317.386719 217.644531 317.539063 218.101563 317.386719 218.710938 C 317.234375 219.015625 317.234375 219.320313 317.082031 219.472656 C 316.929688 219.777344 316.777344 219.929688 316.777344 220.078125 C 316.628906 220.382813 316.628906 220.535156 316.628906 220.6875 C 316.628906 220.839844 316.777344 220.992188 317.082031 221.144531 C 317.539063 221.449219 317.84375 221.144531 318.300781 220.535156 C 318.453125 220.078125 318.753906 219.472656 319.0625 218.710938 C 319.363281 217.949219 319.820313 217.1875 320.277344 216.277344 C 320.886719 215.363281 321.34375 214.601563 321.953125 213.992188 C 322.40625 213.386719 322.710938 212.777344 323.015625 212.320313 C 323.320313 211.710938 323.320313 211.253906 323.015625 211.101563 C 322.710938 210.949219 322.558594 210.796875 322.40625 210.949219 C 322.253906 210.949219 322.101563 211.101563 321.953125 211.253906 C 321.796875 211.40625 321.644531 211.558594 321.496094 211.863281 C 321.34375 212.015625 321.191406 212.167969 321.039063 212.472656 C 320.734375 212.625 320.429688 212.929688 320.277344 212.929688 C 320.125 213.078125 319.820313 213.078125 319.671875 213.078125 C 319.363281 212.929688 319.0625 212.929688 318.753906 212.777344 C 318.453125 212.625 318.148438 212.320313 317.691406 212.167969 L 296.242188 199.691406 C 296.089844 199.691406 295.9375 199.539063 295.9375 199.386719 C 295.785156 199.082031 295.785156 198.929688 295.9375 198.777344 L 296.242188 198.015625 C 297.003906 196.800781 297.761719 195.734375 298.371094 195.277344 C 299.132813 194.667969 300.046875 194.515625 301.109375 194.515625 C 301.71875 194.667969 302.175781 194.820313 302.480469 194.972656 C 302.933594 195.125 303.238281 195.125 303.542969 195.277344 C 303.847656 195.277344 304.152344 195.429688 304.304688 195.277344 C 304.457031 195.277344 304.761719 195.277344 304.761719 194.972656 C 304.914063 194.820313 304.914063 194.515625 304.761719 194.363281 C 304.761719 194.214844 304.457031 194.0625 304 193.757813 Z M 291.675781 233.929688 C 292.285156 232.253906 292.132813 230.730469 291.371094 229.058594 C 290.765625 227.535156 289.394531 226.320313 287.722656 225.253906 C 285.746094 224.1875 283.617188 223.730469 281.789063 224.339844 C 279.8125 224.796875 278.140625 226.167969 276.769531 228.601563 C 276.160156 229.515625 275.703125 230.578125 275.246094 231.644531 C 274.640625 232.710938 274.03125 233.929688 273.421875 234.992188 C 272.964844 235.753906 272.664063 236.363281 272.355469 236.820313 C 271.898438 237.273438 271.746094 237.578125 271.597656 237.730469 C 271.445313 238.1875 271.292969 238.492188 271.140625 238.644531 C 271.140625 238.949219 271.292969 239.101563 271.597656 239.253906 C 271.746094 239.40625 271.898438 239.40625 272.054688 239.40625 C 272.203125 239.40625 272.355469 239.253906 272.507813 239.101563 C 272.664063 238.949219 272.8125 238.644531 272.964844 238.492188 C 273.117188 238.1875 273.269531 237.882813 273.574219 237.730469 C 273.878906 237.273438 274.335938 237.121094 274.640625 237.273438 C 274.945313 237.273438 275.398438 237.429688 276.160156 237.882813 L 296.089844 249.445313 C 296.546875 249.753906 297.003906 249.90625 297.304688 250.207031 C 297.609375 250.363281 297.761719 250.515625 297.914063 250.664063 C 298.066406 250.972656 298.066406 251.121094 298.066406 251.425781 C 298.066406 251.730469 298.066406 252.035156 297.914063 252.339844 C 297.914063 252.644531 297.761719 252.796875 297.761719 253.097656 C 297.609375 253.253906 297.460938 253.40625 297.460938 253.707031 C 297.304688 253.859375 297.304688 254.015625 297.304688 254.164063 C 297.460938 254.316406 297.460938 254.46875 297.761719 254.46875 C 298.21875 254.773438 298.675781 254.621094 298.980469 254.015625 C 299.132813 253.707031 299.285156 253.253906 299.589844 252.492188 C 299.894531 251.730469 300.503906 250.816406 301.109375 249.753906 C 301.71875 248.535156 302.328125 247.773438 302.785156 247.164063 C 303.238281 246.554688 303.542969 246.101563 303.695313 245.949219 C 304 245.339844 304 244.882813 303.542969 244.730469 C 303.085938 244.429688 302.632813 244.578125 302.175781 245.1875 C 302.023438 245.644531 301.71875 245.949219 301.414063 246.101563 C 301.109375 246.40625 300.804688 246.40625 300.503906 246.40625 C 300.195313 246.40625 299.894531 246.253906 299.589844 246.101563 C 299.132813 245.949219 298.828125 245.796875 298.371094 245.492188 L 289.699219 240.621094 C 289.394531 240.320313 289.242188 240.015625 289.546875 239.558594 L 289.699219 239.253906 C 290.15625 238.492188 290.613281 238.035156 291.066406 237.882813 C 291.523438 237.730469 292.132813 237.730469 293.046875 237.882813 L 305.367188 239.710938 C 305.976563 239.710938 306.433594 239.863281 306.738281 239.863281 C 307.042969 239.863281 307.34375 239.558594 307.496094 239.101563 C 307.648438 238.796875 307.953125 238.492188 307.953125 238.1875 C 308.105469 237.882813 308.257813 237.429688 308.5625 237.121094 C 308.867188 236.664063 309.019531 236.210938 309.324219 235.753906 C 309.628906 235.296875 309.933594 234.992188 310.234375 234.535156 C 310.390625 234.230469 310.390625 234.078125 310.390625 233.929688 C 310.539063 233.773438 310.390625 233.621094 310.234375 233.621094 C 309.78125 233.320313 309.628906 233.472656 309.324219 233.773438 C 309.019531 234.078125 308.5625 234.382813 308.105469 234.839844 C 307.800781 234.992188 307.34375 235.144531 306.433594 234.992188 C 305.671875 234.992188 304.457031 234.839844 303.085938 234.6875 L 295.480469 233.621094 C 294.871094 233.621094 294.109375 233.472656 293.503906 233.472656 C 292.894531 233.472656 292.285156 233.621094 291.675781 233.929688 M 286.808594 238.796875 L 278.441406 234.078125 C 278.140625 233.773438 277.835938 233.621094 277.53125 233.472656 C 277.378906 233.167969 277.226563 233.015625 277.074219 232.710938 C 276.921875 232.558594 276.921875 232.253906 277.074219 231.796875 C 277.074219 231.492188 277.226563 231.035156 277.53125 230.578125 C 278.441406 229.210938 279.507813 228.449219 281.027344 228.296875 C 282.550781 228.144531 284.222656 228.601563 286.046875 229.667969 C 289.699219 231.796875 290.765625 234.382813 288.9375 237.429688 C 288.480469 238.1875 288.179688 238.644531 287.875 238.949219 C 287.570313 239.101563 287.265625 239.101563 286.808594 238.796875 M 265.664063 251.578125 L 265.511719 251.425781 C 265.054688 251.121094 264.601563 250.972656 264.449219 250.972656 C 264.144531 250.972656 263.839844 251.273438 263.535156 251.882813 C 263.230469 252.1875 262.773438 253.097656 262.015625 254.46875 C 261.253906 255.992188 260.1875 257.96875 258.664063 260.554688 C 257.601563 262.535156 256.535156 264.054688 255.929688 265.121094 C 255.320313 266.1875 254.863281 266.796875 254.710938 266.945313 C 254.40625 267.402344 254.558594 267.859375 254.863281 268.011719 C 255.167969 268.164063 255.320313 268.316406 255.472656 268.164063 C 255.621094 268.164063 255.777344 268.011719 255.929688 267.859375 C 256.078125 267.707031 256.078125 267.554688 256.230469 267.253906 C 256.382813 267.097656 256.535156 266.796875 256.839844 266.644531 C 257.144531 266.339844 257.601563 266.1875 257.90625 266.339844 C 258.210938 266.339844 258.664063 266.644531 259.273438 266.945313 L 279.355469 278.511719 C 280.117188 278.96875 280.726563 279.425781 281.183594 279.882813 C 281.484375 280.183594 281.484375 280.792969 281.335938 281.402344 C 281.027344 282.011719 280.878906 282.46875 280.574219 282.925781 C 280.421875 283.226563 280.574219 283.53125 280.878906 283.683594 C 281.335938 283.988281 281.789063 283.835938 282.09375 283.074219 C 282.246094 282.925781 282.398438 282.46875 282.703125 281.859375 C 283.160156 281.097656 283.617188 280.03125 284.375 278.664063 C 286.046875 275.925781 287.417969 273.640625 288.632813 271.816406 C 289.851563 269.988281 290.613281 268.621094 291.222656 267.859375 C 291.371094 267.402344 291.523438 267.253906 291.523438 267.097656 C 291.675781 266.796875 291.675781 266.644531 291.523438 266.492188 C 291.523438 266.339844 291.371094 266.1875 291.222656 266.035156 C 291.066406 266.035156 290.765625 265.730469 290.460938 265.578125 L 286.503906 262.6875 C 286.199219 262.535156 286.046875 262.382813 285.894531 262.230469 L 285.746094 262.078125 L 285.441406 262.078125 C 285.289063 262.078125 285.136719 262.230469 285.136719 262.230469 C 284.832031 262.6875 284.984375 263.144531 285.441406 263.75 C 285.894531 264.359375 286.351563 265.121094 286.960938 266.1875 C 287.265625 266.796875 287.417969 267.402344 287.570313 267.859375 C 287.722656 268.46875 287.722656 269.078125 287.722656 269.535156 C 287.570313 270.140625 287.417969 270.597656 287.113281 271.207031 C 286.960938 271.816406 286.65625 272.425781 286.199219 273.03125 C 285.894531 273.796875 285.441406 274.25 285.136719 274.554688 C 284.832031 275.011719 284.527344 275.164063 284.222656 275.316406 C 283.917969 275.46875 283.617188 275.46875 283.160156 275.316406 C 282.703125 275.164063 282.246094 275.011719 281.636719 274.554688 L 272.507813 269.382813 C 272.203125 269.230469 272.054688 269.078125 272.054688 268.925781 C 272.054688 268.773438 272.054688 268.46875 272.203125 268.164063 L 273.421875 266.1875 C 273.878906 265.273438 274.335938 264.664063 274.945313 264.054688 C 275.398438 263.601563 276.007813 263.296875 276.921875 263.449219 C 277.53125 263.449219 277.984375 263.449219 278.441406 263.601563 C 278.898438 263.601563 279.203125 263.75 279.507813 263.902344 L 280.421875 263.902344 C 280.574219 263.902344 280.726563 263.902344 280.878906 263.75 C 281.027344 263.296875 280.878906 262.992188 280.421875 262.6875 C 280.117188 262.535156 279.660156 262.382813 279.050781 262.078125 C 278.441406 261.773438 277.53125 261.316406 276.617188 260.707031 C 275.703125 260.25 274.945313 259.644531 274.183594 259.1875 C 273.574219 258.730469 272.964844 258.273438 272.355469 257.96875 C 271.898438 257.664063 271.597656 257.816406 271.445313 258.121094 C 271.292969 258.425781 271.292969 258.578125 271.445313 258.730469 C 271.597656 258.882813 271.746094 259.1875 272.054688 259.339844 C 272.203125 259.492188 272.507813 259.796875 272.664063 260.097656 C 272.964844 260.402344 273.117188 260.707031 273.269531 261.164063 C 273.269531 261.46875 273.269531 262.078125 272.964844 262.839844 C 272.8125 263.601563 272.355469 264.511719 271.898438 265.273438 L 270.835938 267.253906 C 270.53125 267.707031 270.378906 267.859375 270.226563 267.859375 C 270.074219 267.859375 269.769531 267.859375 269.464844 267.554688 L 262.164063 263.449219 C 261.710938 263.144531 261.253906 262.839844 260.949219 262.6875 C 260.644531 262.382813 260.492188 262.078125 260.339844 261.773438 C 260.1875 261.621094 260.1875 261.316406 260.339844 260.859375 C 260.492188 260.554688 260.644531 260.097656 260.949219 259.492188 C 262.316406 257.054688 263.839844 255.6875 265.664063 255.078125 C 266.273438 254.925781 266.878906 254.773438 267.335938 254.773438 C 267.792969 254.925781 268.25 254.925781 268.707031 254.925781 C 269.011719 255.078125 269.464844 255.078125 269.617188 255.078125 C 269.921875 255.078125 270.074219 255.078125 270.226563 254.773438 C 270.378906 254.46875 270.074219 254.164063 269.464844 253.707031 Z M 253.949219 299.660156 L 255.472656 296.921875 C 256.6875 295.097656 258.058594 293.878906 259.730469 293.574219 C 261.40625 293.269531 263.230469 293.574219 265.054688 294.640625 C 267.183594 295.859375 268.554688 297.378906 269.164063 299.054688 C 269.617188 300.726563 269.464844 302.402344 268.402344 304.074219 C 267.640625 305.445313 266.878906 306.203125 266.121094 306.355469 C 265.207031 306.660156 264.296875 306.355469 263.078125 305.75 L 254.253906 300.574219 C 253.796875 300.421875 253.644531 300.117188 253.949219 299.660156 M 256.992188 291.902344 C 257.296875 290.074219 257.144531 288.554688 256.6875 287.335938 C 256.230469 286.117188 255.167969 285.054688 253.644531 284.292969 C 251.363281 282.925781 249.082031 282.769531 246.953125 283.988281 C 244.824219 285.207031 242.691406 287.640625 240.714844 291.292969 C 237.519531 296.769531 236.304688 299.816406 237.214844 300.269531 C 237.671875 300.574219 237.976563 300.421875 238.128906 300.117188 C 238.28125 299.816406 238.433594 299.660156 238.433594 299.359375 C 238.585938 299.054688 238.738281 298.75 238.890625 298.445313 C 239.34375 297.683594 240.105469 297.53125 241.171875 298.292969 L 261.253906 309.855469 C 261.558594 310.007813 261.710938 310.007813 261.859375 310.160156 C 262.015625 310.3125 262.015625 310.3125 262.164063 310.3125 C 262.773438 310.769531 263.078125 311.074219 263.230469 311.53125 C 263.535156 311.988281 263.382813 312.445313 263.078125 313.203125 C 262.621094 313.8125 262.621094 314.269531 263.078125 314.574219 C 263.535156 314.878906 263.992188 314.726563 264.296875 314.117188 C 264.449219 313.8125 264.601563 313.355469 264.902344 312.898438 C 265.054688 312.289063 265.359375 311.53125 265.816406 310.769531 C 266.425781 309.703125 267.335938 308.488281 268.25 307.421875 C 269.164063 306.203125 270.226563 304.835938 271.140625 303.160156 C 271.746094 301.945313 272.203125 300.726563 272.355469 299.511719 C 272.664063 298.292969 272.507813 297.074219 272.203125 296.011719 C 271.898438 294.945313 271.445313 293.878906 270.683594 292.8125 C 269.921875 291.902344 269.011719 291.140625 267.792969 290.378906 C 265.816406 289.3125 263.839844 288.859375 262.015625 289.011719 C 260.035156 289.3125 258.515625 290.226563 256.992188 291.902344 M 250.90625 298.75 L 243.605469 294.488281 C 242.84375 294.03125 242.234375 293.574219 242.234375 293.117188 C 242.085938 292.664063 242.234375 291.75 242.84375 290.683594 C 243.910156 289.011719 245.128906 287.945313 246.648438 287.488281 C 248.171875 287.183594 249.691406 287.488281 251.515625 288.554688 C 253.1875 289.464844 254.253906 290.835938 254.558594 292.359375 C 254.863281 293.878906 254.40625 295.707031 253.339844 297.53125 L 253.039063 298.140625 C 252.886719 298.445313 252.578125 298.597656 252.578125 298.902344 C 252.429688 299.054688 252.277344 299.054688 252.125 299.207031 C 251.972656 299.207031 251.820313 299.207031 251.667969 299.054688 C 251.363281 299.054688 251.214844 298.902344 250.90625 298.75 M 231.589844 315.03125 C 230.980469 314.574219 230.371094 314.269531 230.21875 313.964844 C 230.066406 313.660156 230.066406 313.203125 230.21875 312.597656 C 230.371094 312.289063 230.371094 312.140625 230.523438 311.835938 C 230.675781 311.53125 230.675781 311.378906 230.828125 311.226563 C 230.828125 310.921875 230.980469 310.769531 230.828125 310.769531 C 230.828125 310.617188 230.675781 310.464844 230.523438 310.3125 C 230.066406 310.160156 229.761719 310.160156 229.609375 310.617188 C 229.457031 310.921875 229.152344 311.378906 228.847656 312.140625 C 228.695313 312.898438 228.089844 313.964844 227.480469 315.183594 C 226.71875 316.398438 226.109375 317.3125 225.503906 317.921875 C 225.046875 318.683594 224.742188 319.140625 224.589844 319.289063 C 224.285156 319.746094 224.4375 320.054688 224.742188 320.355469 C 225.046875 320.507813 225.199219 320.507813 225.351563 320.355469 C 225.503906 320.355469 225.65625 320.203125 225.808594 320.054688 C 225.960938 319.898438 225.960938 319.746094 226.109375 319.445313 C 226.265625 319.140625 226.566406 318.988281 226.71875 318.683594 C 227.175781 318.378906 227.480469 318.226563 227.785156 318.226563 C 228.089844 318.226563 228.695313 318.53125 229.304688 318.835938 L 249.386719 330.398438 C 249.84375 330.703125 250.144531 331.007813 250.449219 331.160156 C 250.753906 331.3125 251.058594 331.464844 251.214844 331.769531 C 251.363281 331.921875 251.363281 332.226563 251.363281 332.378906 C 251.363281 332.683594 251.363281 332.984375 251.214844 333.441406 C 251.214844 333.59375 251.058594 333.898438 250.90625 334.050781 C 250.753906 334.203125 250.753906 334.507813 250.605469 334.660156 L 250.605469 335.117188 C 250.605469 335.269531 250.753906 335.421875 250.90625 335.574219 C 251.363281 335.878906 251.820313 335.574219 252.125 334.964844 C 252.277344 334.8125 252.578125 334.203125 252.886719 333.59375 C 253.1875 332.832031 253.644531 331.921875 254.40625 330.703125 C 255.015625 329.640625 255.621094 328.726563 256.078125 328.117188 C 256.535156 327.355469 256.839844 327.050781 256.992188 326.746094 C 257.296875 326.140625 257.296875 325.679688 256.839844 325.378906 C 256.6875 325.378906 256.535156 325.226563 256.382813 325.378906 C 256.230469 325.378906 256.078125 325.378906 255.929688 325.679688 C 255.777344 325.835938 255.621094 325.988281 255.472656 326.140625 C 255.320313 326.441406 255.167969 326.597656 254.863281 326.898438 C 254.710938 327.050781 254.40625 327.203125 254.253906 327.355469 C 253.949219 327.507813 253.796875 327.507813 253.496094 327.507813 C 253.339844 327.355469 253.039063 327.355469 252.734375 327.203125 C 252.429688 327.050781 252.125 326.746094 251.667969 326.597656 Z M 216.222656 341.660156 C 215.464844 341.203125 215.003906 340.898438 214.855469 340.59375 C 214.550781 340.441406 214.550781 339.988281 214.855469 339.378906 C 214.855469 339.074219 215.003906 338.769531 215.160156 338.464844 C 215.3125 338.3125 215.3125 338.007813 215.464844 337.855469 L 215.464844 337.398438 C 215.464844 337.246094 215.3125 337.09375 215.160156 336.941406 C 214.703125 336.789063 214.398438 336.941406 214.09375 337.246094 C 214.09375 337.550781 213.789063 338.007813 213.484375 338.769531 C 213.179688 339.679688 212.726563 340.59375 211.964844 341.964844 C 211.203125 343.179688 210.59375 344.09375 210.136719 344.550781 C 209.679688 345.160156 209.378906 345.613281 209.226563 345.769531 C 209.074219 346.222656 209.074219 346.53125 209.527344 346.679688 C 209.835938 346.832031 209.984375 346.832031 210.136719 346.832031 C 210.289063 346.832031 210.289063 346.679688 210.441406 346.53125 C 210.59375 346.375 210.746094 346.222656 210.898438 345.921875 C 211.050781 345.769531 211.203125 345.464844 211.355469 345.3125 C 211.8125 345.007813 212.117188 344.855469 212.421875 344.855469 C 212.726563 345.007813 213.332031 345.160156 213.941406 345.613281 L 234.019531 357.179688 C 234.480469 357.484375 234.78125 357.636719 235.085938 357.789063 C 235.390625 358.09375 235.542969 358.242188 235.695313 358.394531 C 235.847656 358.550781 236 358.851563 236 359.15625 C 236 359.308594 236 359.613281 235.847656 360.070313 C 235.695313 360.375 235.695313 360.527344 235.542969 360.679688 C 235.390625 360.984375 235.390625 361.136719 235.238281 361.289063 L 235.238281 361.746094 C 235.238281 361.894531 235.390625 362.050781 235.542969 362.199219 C 236 362.503906 236.453125 362.351563 236.761719 361.746094 C 236.914063 361.441406 237.214844 360.984375 237.519531 360.222656 C 237.824219 359.460938 238.28125 358.550781 238.890625 357.332031 C 240.410156 354.746094 241.78125 352.613281 242.84375 350.941406 C 244.0625 349.265625 244.824219 348.050781 245.433594 347.140625 C 245.734375 346.53125 245.734375 346.070313 245.128906 345.769531 C 245.128906 345.769531 244.976563 345.769531 244.976563 345.613281 C 244.824219 345.464844 244.671875 345.464844 244.519531 345.3125 L 240.5625 342.421875 C 240.410156 342.269531 240.257813 342.117188 240.105469 342.117188 C 239.953125 341.964844 239.953125 341.964844 239.800781 341.964844 L 239.496094 341.964844 L 239.34375 342.117188 C 239.191406 342.421875 239.191406 342.878906 239.648438 343.488281 C 239.953125 344.09375 240.410156 345.007813 240.867188 346.070313 C 241.324219 347.140625 241.628906 348.203125 241.476563 349.113281 C 241.476563 350.179688 241.171875 351.09375 240.714844 352.007813 C 239.648438 353.832031 238.128906 354.289063 236.152344 353.222656 "/>
<path style=" stroke:none;fill-rule:evenodd;fill:rgb(13.299561%,11.799622%,12.199402%);fill-opacity:1;" d="M 326.515625 418.351563 L 326.515625 417.894531 C 326.515625 417.742188 326.515625 417.589844 326.363281 417.4375 C 326.363281 417.132813 326.210938 417.132813 325.90625 417.132813 C 325.753906 417.132813 325.601563 417.132813 325.601563 417.285156 C 325.449219 417.4375 325.296875 417.589844 325.144531 417.742188 C 325.144531 417.894531 324.992188 418.199219 324.839844 418.351563 C 324.6875 418.652344 324.382813 418.808594 324.082031 418.808594 C 323.777344 418.960938 323.320313 419.109375 322.40625 419.109375 L 320.429688 419.109375 C 319.667969 418.960938 318.90625 418.960938 317.996094 418.960938 L 308.714844 418.960938 C 308.105469 419.109375 307.496094 419.109375 306.890625 419.109375 C 305.519531 419.109375 304.609375 418.960938 304.304688 418.652344 C 304.152344 418.652344 304 418.503906 303.847656 418.351563 C 303.847656 418.199219 303.695313 418.046875 303.695313 417.894531 C 303.542969 417.742188 303.390625 417.4375 303.390625 417.285156 C 303.238281 417.132813 303.085938 417.132813 302.933594 417.132813 C 302.632813 417.132813 302.328125 417.285156 302.328125 417.742188 C 302.175781 418.199219 302.023438 418.652344 301.871094 419.414063 L 300.5 423.980469 C 300.347656 424.132813 300.347656 424.285156 300.347656 424.4375 C 300.195313 424.589844 300.195313 424.742188 300.195313 424.742188 C 300.195313 425.046875 300.347656 425.195313 300.347656 425.195313 C 300.5 425.347656 300.652344 425.347656 300.804688 425.347656 C 301.261719 425.347656 301.71875 425.046875 302.023438 424.589844 C 302.480469 424.132813 302.933594 423.371094 303.542969 422.460938 C 304.304688 421.695313 305.0625 421.242188 305.824219 420.9375 C 306.585938 420.480469 307.496094 420.328125 308.714844 420.328125 L 310.238281 420.328125 C 310.539063 420.328125 310.695313 420.480469 310.847656 420.632813 C 310.996094 420.785156 310.996094 420.9375 310.996094 421.242188 L 310.996094 442.847656 C 310.996094 443.914063 310.996094 444.523438 310.847656 444.828125 C 310.695313 445.132813 310.238281 445.4375 309.476563 445.585938 C 309.171875 445.738281 308.867188 445.738281 308.5625 445.738281 L 307.804688 445.738281 C 307.496094 445.738281 307.347656 445.890625 307.195313 445.890625 C 307.042969 446.042969 307.042969 446.195313 307.042969 446.347656 C 307.042969 446.804688 307.347656 447.109375 308.257813 447.109375 C 308.714844 447.109375 309.476563 447.109375 310.390625 446.957031 C 311.300781 446.804688 312.367188 446.804688 313.582031 446.804688 C 314.800781 446.804688 315.863281 446.804688 316.625 446.957031 C 317.539063 447.109375 318.300781 447.109375 318.90625 447.109375 C 319.667969 447.109375 320.125 446.957031 320.125 446.5 C 320.125 446.195313 319.972656 446.042969 319.820313 446.042969 C 319.820313 445.890625 319.515625 445.890625 319.363281 445.890625 C 319.0625 445.738281 318.90625 445.738281 318.605469 445.738281 C 318.300781 445.738281 317.996094 445.738281 317.539063 445.585938 C 317.234375 445.4375 316.929688 445.4375 316.777344 445.28125 C 316.472656 445.132813 316.320313 444.980469 316.320313 444.828125 C 316.171875 444.675781 316.171875 444.371094 316.171875 444.066406 C 316.015625 443.761719 316.015625 443.457031 316.015625 442.847656 L 316.015625 421.089844 C 316.015625 420.9375 316.171875 420.785156 316.320313 420.632813 C 316.472656 420.480469 316.625 420.328125 316.777344 420.328125 L 317.691406 420.328125 C 319.515625 420.328125 320.734375 420.480469 321.648438 420.785156 C 322.558594 420.9375 323.320313 421.546875 323.777344 422.460938 C 323.929688 422.914063 324.082031 423.371094 324.230469 423.675781 C 324.382813 424.132813 324.382813 424.4375 324.535156 424.742188 C 324.535156 424.894531 324.6875 425.195313 324.839844 425.347656 C 324.992188 425.503906 325.144531 425.503906 325.449219 425.503906 C 325.753906 425.503906 325.90625 425.503906 326.058594 425.195313 C 326.058594 425.046875 326.210938 424.742188 326.210938 424.285156 "/>
<path style=" stroke:none;fill-rule:evenodd;fill:rgb(13.299561%,11.799622%,12.199402%);fill-opacity:1;" d="M 343.398438 426.414063 L 346.441406 434.175781 C 346.441406 434.480469 346.59375 434.632813 346.59375 434.632813 C 346.59375 434.78125 346.441406 434.78125 346.289063 434.933594 C 346.289063 434.933594 346.140625 435.085938 345.984375 435.085938 L 340.359375 435.085938 C 340.054688 435.085938 340.054688 434.933594 340.054688 434.78125 L 340.054688 434.328125 L 342.640625 426.414063 C 342.792969 426.109375 342.945313 426.109375 343.097656 426.109375 C 343.097656 426.109375 343.25 426.261719 343.398438 426.414063 M 346.140625 420.328125 C 345.835938 419.71875 345.683594 419.109375 345.53125 418.808594 C 345.53125 418.351563 345.226563 418.199219 344.769531 418.199219 C 344.464844 418.199219 344.3125 418.351563 344.160156 418.503906 C 344.160156 418.652344 344.007813 418.960938 343.855469 419.261719 L 334.882813 442.238281 C 334.578125 443.152344 334.273438 443.761719 333.96875 444.371094 C 333.816406 444.828125 333.359375 445.28125 332.75 445.585938 C 332.449219 445.738281 332.144531 445.890625 331.839844 445.890625 C 331.535156 445.890625 331.230469 446.042969 330.925781 446.042969 C 330.773438 446.042969 330.46875 446.042969 330.316406 446.195313 C 330.164063 446.195313 330.015625 446.347656 330.015625 446.652344 C 330.015625 446.957031 330.316406 447.261719 331.078125 447.261719 C 331.382813 447.261719 331.992188 447.109375 332.601563 447.109375 C 333.207031 446.957031 333.96875 446.957031 334.730469 446.957031 C 335.945313 446.957031 337.011719 446.957031 337.773438 447.109375 C 338.683594 447.261719 339.292969 447.261719 339.597656 447.261719 C 340.359375 447.261719 340.664063 447.109375 340.664063 446.652344 C 340.664063 446.347656 340.359375 446.195313 340.054688 446.042969 C 339.597656 445.890625 339.140625 445.890625 338.382813 445.738281 C 337.773438 445.738281 337.46875 445.585938 337.164063 445.4375 C 337.011719 445.28125 336.859375 444.980469 336.859375 444.523438 C 336.859375 444.066406 337.164063 442.847656 337.773438 441.023438 L 339.140625 437.066406 C 339.140625 437.066406 339.140625 436.914063 339.292969 436.761719 L 346.746094 436.761719 C 347.203125 436.761719 347.507813 436.761719 347.507813 437.066406 L 349.789063 442.847656 C 350.09375 443.761719 350.246094 444.371094 350.246094 444.828125 C 350.246094 445.28125 350.09375 445.4375 349.789063 445.585938 C 349.484375 445.738281 348.878906 445.890625 347.964844 445.890625 C 347.203125 445.890625 346.746094 446.042969 346.746094 446.652344 C 346.746094 446.957031 347.203125 447.109375 347.8125 447.109375 C 348.117188 447.109375 348.878906 447.109375 349.789063 446.957031 L 356.484375 446.957031 C 357.242188 447.109375 357.851563 447.109375 358.308594 447.109375 C 359.070313 447.109375 359.527344 446.957031 359.527344 446.5 C 359.527344 446.195313 359.222656 446.042969 358.917969 446.042969 C 358.460938 446.042969 358.003906 445.890625 357.394531 445.585938 C 356.636719 445.132813 356.179688 444.675781 355.722656 444.066406 C 355.417969 443.457031 355.113281 442.542969 354.65625 441.480469 "/>
<path style=" stroke:none;fill-rule:evenodd;fill:rgb(13.299561%,11.799622%,12.199402%);fill-opacity:1;" d="M 368.503906 419.109375 C 368.046875 419.109375 367.742188 419.261719 367.742188 419.71875 C 367.742188 419.871094 367.894531 420.023438 368.046875 420.175781 C 368.046875 420.175781 368.351563 420.328125 368.503906 420.328125 L 369.261719 420.328125 C 369.566406 420.328125 369.871094 420.328125 370.328125 420.480469 C 370.785156 420.632813 371.085938 420.785156 371.238281 421.089844 C 371.390625 421.394531 371.542969 421.847656 371.542969 422.457031 L 371.542969 423.066406 C 371.390625 423.21875 371.390625 423.371094 371.390625 423.371094 L 370.480469 438.738281 C 370.480469 439.957031 370.328125 441.175781 370.328125 442.085938 C 370.175781 443 370.023438 443.761719 369.871094 444.21875 C 369.71875 444.828125 369.566406 445.28125 369.261719 445.4375 C 368.957031 445.738281 368.503906 445.890625 368.046875 445.890625 L 366.980469 445.890625 C 366.523438 445.890625 366.21875 446.042969 366.21875 446.5 C 366.21875 446.957031 366.675781 447.261719 367.589844 447.261719 C 368.046875 447.261719 368.503906 447.109375 369.109375 447.109375 C 369.71875 447.109375 370.328125 446.957031 371.085938 446.957031 C 372 446.957031 372.761719 447.109375 373.367188 447.109375 C 373.976563 447.109375 374.585938 447.261719 375.042969 447.261719 C 375.957031 447.261719 376.410156 446.957031 376.410156 446.5 C 376.410156 446.042969 376.109375 445.890625 375.347656 445.890625 L 374.585938 445.890625 C 373.519531 445.890625 372.761719 445.585938 372.457031 444.980469 C 372.152344 444.21875 372 443.304688 372 441.78125 C 372 441.480469 372 441.175781 372.152344 440.71875 L 372.152344 439.347656 L 373.066406 425.652344 C 373.21875 425.195313 373.21875 424.894531 373.519531 424.894531 C 373.519531 424.894531 373.675781 425.046875 373.824219 425.5 L 382.34375 445.738281 C 382.34375 446.042969 382.648438 446.195313 383.105469 446.195313 C 383.5625 446.195313 383.867188 446.042969 384.019531 445.585938 L 392.386719 425.347656 C 392.535156 425.046875 392.535156 424.894531 392.6875 424.894531 C 392.84375 424.894531 392.992188 425.046875 392.992188 425.5 L 393.449219 441.933594 L 393.449219 443 C 393.449219 443.457031 393.296875 443.914063 393.296875 444.371094 C 393.296875 444.675781 393.144531 444.980469 392.992188 445.132813 C 392.6875 445.4375 392.386719 445.585938 392.082031 445.585938 C 391.625 445.738281 391.167969 445.738281 390.40625 445.738281 C 389.800781 445.738281 389.496094 446.042969 389.496094 446.5 C 389.496094 446.957031 389.953125 447.109375 390.710938 447.109375 C 391.167969 447.109375 391.929688 447.109375 392.84375 446.957031 C 393.753906 446.957031 394.820313 446.804688 396.035156 446.804688 C 397.253906 446.804688 398.167969 446.957031 399.078125 446.957031 C 399.839844 447.109375 400.601563 447.109375 401.207031 447.109375 C 401.664063 447.109375 401.816406 447.109375 402.121094 446.957031 C 402.273438 446.804688 402.425781 446.652344 402.425781 446.5 C 402.425781 446.195313 402.273438 446.042969 402.121094 445.890625 C 401.96875 445.890625 401.816406 445.738281 401.664063 445.738281 L 400.753906 445.738281 C 400.449219 445.738281 399.992188 445.738281 399.6875 445.585938 C 399.078125 445.28125 398.773438 445.132813 398.621094 444.675781 C 398.621094 444.371094 398.472656 443.761719 398.472656 443 L 397.863281 423.371094 L 397.863281 422.304688 C 397.863281 421.695313 397.863281 421.394531 398.015625 421.089844 C 398.015625 420.9375 398.320313 420.785156 398.773438 420.632813 C 399.078125 420.480469 399.382813 420.328125 399.6875 420.328125 L 400.601563 420.328125 C 400.902344 420.328125 401.054688 420.175781 401.207031 420.175781 C 401.359375 420.023438 401.511719 419.871094 401.511719 419.71875 C 401.511719 419.261719 401.207031 419.109375 400.753906 419.109375 L 393.449219 419.109375 C 393.144531 419.109375 392.992188 419.109375 392.84375 419.261719 C 392.6875 419.414063 392.535156 419.566406 392.535156 419.871094 L 385.085938 437.523438 C 384.929688 437.828125 384.777344 438.132813 384.628906 438.132813 C 384.476563 438.132813 384.324219 437.828125 384.324219 437.523438 L 376.71875 419.566406 C 376.71875 419.261719 376.5625 419.261719 376.410156 419.109375 L 375.957031 419.109375 "/>
<path style=" stroke:none;fill-rule:evenodd;fill:rgb(13.299561%,11.799622%,12.199402%);fill-opacity:1;" d="M 434.828125 420.480469 L 434.828125 420.328125 C 434.828125 419.871094 434.675781 419.566406 434.523438 419.265625 C 434.371094 419.109375 433.914063 418.960938 433.15625 418.960938 C 432.851563 418.960938 431.632813 418.960938 429.808594 419.109375 L 416.117188 419.109375 C 414.746094 418.960938 413.988281 418.960938 413.683594 418.960938 C 413.074219 418.960938 412.769531 419.265625 412.769531 419.566406 C 412.769531 419.871094 412.769531 420.023438 412.921875 420.023438 C 413.074219 420.175781 413.226563 420.175781 413.53125 420.328125 L 414.289063 420.328125 C 414.597656 420.328125 414.898438 420.328125 415.203125 420.480469 C 415.660156 420.632813 415.964844 420.785156 416.117188 421.089844 C 416.269531 421.394531 416.269531 421.851563 416.269531 422.460938 L 416.269531 442.847656 C 416.269531 443.761719 416.269531 444.371094 416.117188 444.828125 C 415.964844 445.285156 415.355469 445.585938 414.597656 445.738281 C 413.835938 445.738281 413.226563 445.890625 412.769531 445.890625 C 412.3125 445.890625 412.160156 446.042969 412.160156 446.347656 C 412.160156 446.804688 412.617188 447.109375 413.378906 447.109375 C 413.683594 447.109375 414.140625 447.109375 415.050781 446.957031 L 418.855469 446.957031 C 422.507813 446.957031 425.550781 446.957031 427.984375 447.109375 C 430.414063 447.261719 432.089844 447.261719 433.308594 447.261719 L 434.21875 447.261719 C 434.371094 447.109375 434.675781 447.109375 434.675781 446.957031 C 434.828125 446.804688 434.828125 446.652344 434.980469 446.5 L 434.980469 445.738281 L 435.742188 441.328125 L 435.742188 440.566406 C 435.742188 440.566406 435.742188 440.414063 435.589844 440.261719 C 435.4375 440.261719 435.285156 440.109375 435.285156 440.109375 C 434.828125 440.109375 434.371094 440.414063 434.066406 441.023438 C 433.765625 441.632813 433.15625 442.390625 432.546875 443.304688 C 432.089844 443.761719 431.632813 444.21875 431.175781 444.523438 C 430.722656 444.828125 430.265625 445.132813 429.65625 445.285156 C 429.046875 445.4375 428.4375 445.585938 427.679688 445.738281 L 423.417969 445.738281 C 422.808594 445.585938 422.507813 445.4375 422.203125 445.285156 C 421.898438 445.132813 421.59375 444.828125 421.441406 444.371094 C 421.441406 444.066406 421.289063 443.609375 421.289063 442.847656 L 421.289063 433.71875 C 421.289063 433.414063 421.441406 433.109375 421.59375 433.109375 C 421.746094 432.957031 421.898438 432.957031 422.355469 432.957031 L 424.789063 432.957031 C 426.007813 432.957031 427.070313 432.957031 427.832031 433.109375 C 428.589844 433.261719 429.199219 433.71875 429.65625 434.328125 C 429.808594 434.78125 430.113281 435.238281 430.265625 435.695313 C 430.414063 436 430.566406 436.304688 430.566406 436.609375 C 430.722656 436.914063 430.871094 437.066406 431.023438 437.21875 C 431.023438 437.371094 431.328125 437.523438 431.480469 437.523438 C 431.9375 437.523438 432.242188 437.21875 432.242188 436.761719 C 432.242188 436.457031 432.089844 436.152344 432.089844 435.390625 C 432.089844 434.78125 431.9375 434.023438 431.9375 432.957031 C 431.9375 432.046875 432.089844 431.285156 432.089844 430.523438 C 432.242188 429.761719 432.242188 429.003906 432.242188 428.546875 C 432.242188 428.089844 432.089844 427.9375 431.632813 427.9375 C 431.328125 427.9375 431.175781 427.9375 431.023438 428.089844 C 430.871094 428.394531 430.871094 428.546875 430.722656 428.847656 C 430.722656 429.152344 430.566406 429.304688 430.414063 429.761719 C 430.265625 430.066406 429.960938 430.371094 429.65625 430.675781 C 429.351563 430.828125 428.742188 430.980469 427.984375 431.132813 C 427.070313 431.285156 426.007813 431.4375 424.941406 431.4375 L 422.355469 431.4375 C 421.898438 431.4375 421.59375 431.285156 421.441406 431.285156 C 421.441406 431.132813 421.289063 430.828125 421.289063 430.523438 L 421.289063 423.21875 C 421.289063 422.609375 421.441406 422.152344 421.441406 421.851563 C 421.441406 421.546875 421.59375 421.242188 421.898438 420.9375 C 422.050781 420.785156 422.355469 420.632813 422.808594 420.632813 C 423.113281 420.480469 423.722656 420.480469 424.484375 420.480469 C 427.527344 420.480469 429.808594 420.9375 431.328125 422.152344 C 431.9375 422.460938 432.242188 422.914063 432.546875 423.21875 C 432.851563 423.675781 433.003906 423.980469 433.15625 424.285156 C 433.308594 424.742188 433.460938 424.894531 433.613281 425.195313 C 433.765625 425.351563 433.914063 425.503906 434.21875 425.503906 C 434.523438 425.503906 434.828125 425.046875 434.828125 424.285156 "/>
<path style=" stroke:none;fill-rule:evenodd;fill:rgb(13.299561%,11.799622%,12.199402%);fill-opacity:1;" d="M 447.304688 418.960938 C 446.847656 418.960938 446.542969 419.265625 446.542969 419.566406 C 446.542969 420.023438 446.847656 420.175781 447.304688 420.175781 C 447.910156 420.175781 448.519531 420.328125 449.128906 420.480469 C 449.734375 420.632813 450.039063 420.785156 450.039063 421.089844 C 450.191406 421.394531 450.191406 421.851563 450.191406 422.460938 L 450.191406 443.304688 C 450.191406 443.914063 450.039063 444.371094 449.886719 444.675781 C 449.734375 445.132813 449.433594 445.4375 449.128906 445.585938 C 448.824219 445.738281 448.367188 445.738281 447.757813 445.738281 L 447.304688 445.738281 C 446.542969 445.738281 446.238281 446.042969 446.238281 446.5 C 446.238281 446.957031 446.695313 447.109375 447.605469 447.109375 L 449.28125 447.109375 C 449.734375 446.957031 450.496094 446.957031 451.105469 446.957031 C 452.019531 446.957031 452.628906 446.957031 453.386719 447.109375 L 455.0625 447.109375 C 455.972656 447.109375 456.582031 446.957031 456.582031 446.5 C 456.582031 446.042969 456.277344 445.738281 455.671875 445.738281 L 455.214844 445.738281 C 455.0625 445.738281 454.910156 445.890625 454.757813 445.890625 C 454.148438 445.890625 453.691406 445.738281 453.386719 445.585938 C 453.082031 445.4375 452.777344 445.285156 452.628906 444.980469 C 452.476563 444.523438 452.320313 444.066406 452.320313 443.609375 C 452.320313 443 452.171875 442.390625 452.171875 441.480469 L 452.171875 424.132813 C 452.171875 423.828125 452.320313 423.675781 452.476563 423.675781 L 452.628906 423.675781 L 471.1875 447.566406 C 471.488281 448.023438 471.796875 448.328125 472.25 448.328125 C 472.402344 448.328125 472.554688 448.175781 472.859375 448.023438 C 473.011719 447.71875 473.011719 447.566406 473.011719 447.261719 L 473.011719 424.894531 C 473.011719 423.371094 473.164063 422.152344 473.316406 421.394531 C 473.621094 420.632813 474.230469 420.328125 475.140625 420.328125 L 475.75 420.328125 C 476.207031 420.328125 476.359375 420.175781 476.511719 420.175781 C 476.664063 420.023438 476.664063 419.871094 476.664063 419.71875 C 476.664063 419.265625 476.359375 418.960938 475.445313 418.960938 C 474.988281 418.960938 474.53125 418.960938 474.078125 419.109375 L 469.816406 419.109375 C 469.207031 418.960938 468.601563 418.960938 468.144531 418.960938 C 467.078125 418.960938 466.621094 419.265625 466.621094 419.71875 C 466.621094 419.871094 466.773438 420.023438 466.925781 420.175781 C 467.078125 420.175781 467.382813 420.328125 467.6875 420.328125 C 468.449219 420.328125 469.054688 420.328125 469.511719 420.480469 C 469.96875 420.480469 470.273438 420.632813 470.425781 420.9375 C 470.578125 421.089844 470.730469 421.546875 470.882813 422.003906 L 470.882813 424.742188 C 470.882813 425.046875 471.035156 425.503906 471.035156 426.261719 L 471.035156 438.433594 C 471.035156 438.738281 470.882813 438.890625 470.730469 438.890625 L 470.578125 438.890625 L 455.519531 419.414063 C 455.363281 419.265625 455.214844 419.109375 455.0625 419.109375 C 455.0625 418.960938 454.757813 418.960938 454.605469 418.960938 "/>
<path style=" stroke:none;fill-rule:evenodd;fill:rgb(13.299561%,11.799622%,12.199402%);fill-opacity:1;" d="M 555.007813 345.007813 L 548.769531 351.703125 C 548.621094 352.007813 548.464844 352.007813 548.464844 352.160156 L 548.164063 352.160156 C 548.011719 352.007813 547.859375 352.007813 547.859375 351.855469 L 545.269531 347.59375 C 545.269531 347.289063 545.269531 347.136719 545.421875 347.136719 C 545.421875 347.136719 545.421875 346.984375 545.578125 346.984375 C 545.578125 346.984375 545.730469 346.984375 545.878906 346.835938 L 554.855469 344.398438 C 555.007813 344.398438 555.160156 344.398438 555.3125 344.550781 C 555.3125 344.550781 555.3125 344.855469 555.007813 345.007813 M 562.308594 343.636719 C 562.765625 343.183594 563.222656 342.726563 563.527344 342.421875 C 563.832031 342.117188 563.984375 341.8125 563.832031 341.507813 C 563.679688 341.203125 563.375 341.050781 563.222656 341.203125 C 562.917969 341.203125 562.613281 341.203125 562.308594 341.355469 L 535.6875 347.441406 C 534.773438 347.59375 534.015625 347.746094 533.40625 347.898438 C 532.644531 348.050781 532.039063 347.898438 531.582031 347.746094 C 531.277344 347.59375 530.972656 347.289063 530.820313 347.136719 C 530.667969 346.835938 530.515625 346.679688 530.363281 346.527344 C 530.214844 346.226563 530.0625 346.070313 529.90625 346.070313 C 529.753906 345.921875 529.605469 345.921875 529.296875 346.070313 C 528.996094 346.226563 528.84375 346.679688 529.144531 347.136719 C 529.453125 347.441406 529.605469 347.898438 530.0625 348.355469 C 530.363281 348.8125 530.667969 349.269531 531.125 349.878906 C 531.582031 350.941406 532.039063 351.703125 532.339844 352.3125 C 532.644531 353.070313 532.796875 353.527344 532.949219 353.832031 C 533.253906 354.441406 533.558594 354.59375 534.015625 354.289063 C 534.320313 354.136719 534.472656 353.832031 534.320313 353.527344 C 534.320313 353.222656 534.167969 352.613281 533.863281 352.007813 C 533.710938 351.550781 533.710938 351.246094 533.710938 350.941406 C 533.710938 350.789063 534.015625 350.484375 534.472656 350.179688 C 534.925781 349.878906 536.144531 349.421875 538.121094 348.964844 L 542.6875 347.746094 L 543.140625 347.746094 C 543.140625 347.898438 543.296875 347.898438 543.296875 348.050781 L 546.488281 353.375 C 546.640625 353.832031 546.640625 354.136719 546.488281 354.289063 L 541.925781 359.15625 C 541.164063 360.070313 540.554688 360.527344 540.097656 360.679688 C 539.796875 360.984375 539.339844 360.984375 539.1875 360.832031 C 538.882813 360.679688 538.425781 360.222656 538.121094 359.613281 C 537.664063 359.007813 537.359375 358.855469 536.902344 359.007813 C 536.449219 359.308594 536.449219 359.613281 536.753906 360.070313 C 536.902344 360.375 537.210938 360.832031 537.816406 361.59375 C 538.273438 362.351563 538.882813 363.265625 539.644531 364.484375 C 540.097656 365.398438 540.402344 366.15625 540.710938 366.765625 C 541.011719 367.375 541.164063 367.984375 541.46875 368.289063 C 541.773438 368.898438 542.230469 369.050781 542.535156 368.898438 C 542.839844 368.746094 542.839844 368.441406 542.839844 368.136719 C 542.6875 367.832031 542.535156 367.222656 542.6875 366.765625 C 542.6875 365.851563 542.988281 365.246094 543.445313 364.636719 C 543.902344 364.027344 544.511719 363.265625 545.269531 362.351563 Z M 534.773438 324.007813 C 535.839844 325.226563 537.359375 325.984375 539.035156 326.136719 C 540.710938 326.136719 542.382813 325.835938 544.207031 324.769531 C 546.1875 323.550781 547.554688 322.03125 548.011719 320.050781 C 548.621094 318.226563 548.164063 316.097656 546.792969 313.660156 C 546.1875 312.746094 545.578125 311.683594 544.96875 310.769531 C 544.207031 309.703125 543.597656 308.640625 542.988281 307.574219 C 542.535156 306.816406 542.230469 306.207031 541.925781 305.597656 C 541.773438 305.140625 541.46875 304.835938 541.46875 304.53125 C 541.164063 304.226563 541.011719 303.921875 540.859375 303.769531 C 540.710938 303.617188 540.402344 303.617188 540.097656 303.769531 C 539.945313 303.921875 539.796875 304.074219 539.796875 304.226563 C 539.796875 304.378906 539.796875 304.53125 539.945313 304.683594 C 539.945313 304.835938 540.097656 305.140625 540.253906 305.292969 C 540.402344 305.597656 540.402344 305.902344 540.554688 306.207031 C 540.710938 306.816406 540.554688 307.117188 540.402344 307.421875 C 540.253906 307.726563 539.796875 308.03125 539.035156 308.335938 L 519.105469 319.898438 C 518.648438 320.203125 518.191406 320.507813 517.886719 320.660156 C 517.585938 320.8125 517.28125 320.8125 517.128906 320.8125 C 516.824219 320.964844 516.671875 320.8125 516.367188 320.660156 C 516.214844 320.660156 515.910156 320.355469 515.605469 320.050781 C 515.453125 319.898438 515.304688 319.746094 515.152344 319.597656 C 515 319.289063 514.847656 319.140625 514.847656 318.988281 C 514.695313 318.835938 514.542969 318.835938 514.390625 318.683594 C 514.238281 318.683594 514.085938 318.683594 513.933594 318.835938 C 513.476563 319.140625 513.324219 319.597656 513.628906 320.203125 C 513.78125 320.355469 514.238281 320.8125 514.695313 321.421875 C 515.152344 322.183594 515.757813 322.941406 516.367188 324.160156 C 516.976563 325.226563 517.433594 326.136719 517.734375 326.898438 C 518.039063 327.507813 518.191406 328.117188 518.34375 328.269531 C 518.800781 328.878906 519.105469 329.03125 519.5625 328.726563 C 520.019531 328.574219 520.019531 328.117188 519.714844 327.355469 C 519.410156 326.898438 519.257813 326.59375 519.257813 326.136719 C 519.257813 325.835938 519.257813 325.53125 519.410156 325.378906 C 519.714844 325.074219 519.867188 324.769531 520.171875 324.617188 C 520.476563 324.3125 520.933594 324.160156 521.386719 323.855469 L 529.90625 318.988281 C 530.363281 318.683594 530.667969 318.683594 530.972656 319.140625 L 531.125 319.597656 C 531.582031 320.203125 531.734375 320.8125 531.582031 321.269531 C 531.429688 321.726563 531.125 322.335938 530.667969 323.09375 L 522.910156 332.835938 C 522.605469 333.289063 522.300781 333.746094 522.148438 333.898438 C 521.996094 334.203125 521.996094 334.507813 522.300781 334.964844 C 522.453125 335.269531 522.605469 335.574219 522.910156 335.878906 C 523.0625 336.183594 523.367188 336.484375 523.519531 336.789063 C 523.820313 337.398438 524.128906 337.855469 524.277344 338.3125 C 524.429688 338.769531 524.734375 339.226563 524.886719 339.53125 C 525.039063 339.835938 525.191406 339.984375 525.34375 340.136719 C 525.496094 340.289063 525.648438 340.136719 525.800781 340.136719 C 526.105469 339.835938 526.253906 339.683594 526.105469 339.226563 C 525.953125 338.769531 525.800781 338.3125 525.800781 337.703125 C 525.648438 337.246094 525.953125 336.789063 526.410156 336.183594 C 526.863281 335.421875 527.472656 334.507813 528.386719 333.441406 L 532.949219 327.355469 C 533.40625 326.746094 533.863281 326.289063 534.167969 325.683594 C 534.472656 325.226563 534.621094 324.617188 534.773438 324.007813 M 532.949219 317.160156 L 541.164063 312.445313 C 541.621094 312.140625 541.925781 311.988281 542.230469 311.988281 C 542.535156 311.835938 542.839844 311.835938 543.140625 311.835938 C 543.296875 311.835938 543.597656 311.988281 543.902344 312.292969 C 544.054688 312.445313 544.359375 312.902344 544.664063 313.355469 C 545.578125 314.726563 545.578125 316.097656 544.96875 317.464844 C 544.359375 318.835938 543.140625 320.050781 541.316406 321.117188 C 537.511719 323.246094 534.773438 322.789063 533.101563 319.746094 C 532.644531 318.988281 532.339844 318.53125 532.339844 318.074219 C 532.1875 317.769531 532.492188 317.464844 532.949219 317.160156 M 532.949219 293.269531 L 533.101563 293.117188 C 533.558594 292.96875 533.863281 292.664063 534.015625 292.359375 C 534.167969 292.207031 534.015625 291.75 533.710938 291.140625 C 533.558594 290.835938 532.949219 290.074219 532.1875 288.707031 C 531.277344 287.335938 530.0625 285.359375 528.539063 282.773438 C 527.472656 280.640625 526.5625 279.121094 525.953125 278.054688 C 525.496094 276.988281 525.039063 276.230469 525.039063 276.078125 C 524.734375 275.621094 524.429688 275.46875 523.972656 275.773438 C 523.671875 275.925781 523.671875 275.925781 523.671875 276.078125 C 523.519531 276.230469 523.671875 276.382813 523.671875 276.6875 C 523.820313 276.839844 523.820313 276.988281 523.972656 277.296875 C 524.128906 277.445313 524.277344 277.75 524.277344 278.054688 C 524.277344 278.511719 524.277344 278.96875 524.128906 279.121094 C 523.820313 279.425781 523.367188 279.730469 522.757813 280.03125 L 502.675781 291.597656 C 501.914063 292.054688 501.15625 292.359375 500.699219 292.511719 C 500.242188 292.664063 499.632813 292.511719 499.175781 291.902344 C 498.871094 291.292969 498.566406 290.988281 498.265625 290.53125 C 498.113281 290.226563 497.808594 290.226563 497.503906 290.378906 C 497.046875 290.683594 496.894531 291.140625 497.351563 291.75 C 497.351563 291.902344 497.65625 292.359375 498.113281 292.96875 C 498.566406 293.574219 499.175781 294.640625 499.9375 295.859375 C 501.609375 298.75 502.980469 301.183594 503.894531 303.011719 C 504.804688 304.988281 505.566406 306.359375 506.023438 307.269531 C 506.328125 307.574219 506.480469 307.878906 506.480469 308.03125 C 506.632813 308.03125 506.785156 308.183594 506.9375 308.183594 L 507.546875 308.183594 C 507.695313 308.03125 508.003906 307.878906 508.457031 307.726563 L 512.871094 305.75 C 513.175781 305.597656 513.324219 305.597656 513.476563 305.445313 L 513.78125 305.445313 C 513.78125 305.292969 513.933594 305.292969 513.933594 305.140625 L 513.933594 304.683594 C 513.628906 304.378906 513.175781 304.226563 512.414063 304.378906 L 509.675781 304.378906 C 508.914063 304.378906 508.304688 304.226563 507.847656 304.074219 C 507.238281 303.921875 506.785156 303.617188 506.328125 303.316406 C 505.871094 303.011719 505.566406 302.554688 505.109375 302.097656 C 504.804688 301.640625 504.351563 301.03125 504.046875 300.269531 C 503.589844 299.664063 503.4375 299.054688 503.132813 298.597656 C 502.980469 298.292969 502.980469 297.835938 502.980469 297.53125 C 503.132813 297.074219 503.285156 296.769531 503.589844 296.464844 C 503.894531 296.164063 504.351563 295.859375 504.960938 295.554688 L 513.933594 290.378906 C 514.238281 290.226563 514.542969 290.074219 514.695313 290.074219 C 514.847656 290.226563 515 290.378906 515.304688 290.683594 L 516.367188 292.664063 C 516.824219 293.574219 517.28125 294.335938 517.433594 294.945313 C 517.585938 295.707031 517.433594 296.316406 516.976563 297.074219 C 516.671875 297.53125 516.367188 297.988281 516.0625 298.292969 C 515.757813 298.597656 515.605469 298.902344 515.304688 299.207031 C 515.152344 299.359375 514.847656 299.664063 514.847656 299.816406 C 514.695313 299.96875 514.695313 300.117188 514.847656 300.421875 C 515 300.726563 515.453125 300.726563 515.910156 300.421875 C 516.0625 300.269531 516.519531 300.117188 517.128906 299.664063 C 517.734375 299.207031 518.496094 298.75 519.5625 298.140625 C 520.476563 297.683594 521.234375 297.226563 521.996094 296.921875 C 522.757813 296.464844 523.519531 296.164063 523.972656 295.859375 C 524.429688 295.707031 524.582031 295.402344 524.277344 294.945313 C 524.128906 294.792969 523.972656 294.640625 523.820313 294.640625 C 523.519531 294.640625 523.367188 294.792969 523.0625 294.945313 C 522.757813 294.945313 522.453125 295.097656 521.996094 295.097656 C 521.691406 295.097656 521.234375 295.097656 520.777344 294.945313 C 520.476563 294.945313 520.019531 294.640625 519.410156 294.03125 C 518.953125 293.421875 518.34375 292.664063 517.886719 291.75 L 516.671875 289.769531 C 516.519531 289.46875 516.367188 289.160156 516.519531 289.011719 C 516.519531 288.859375 516.824219 288.707031 517.128906 288.554688 L 524.277344 284.292969 C 524.886719 283.988281 525.34375 283.835938 525.648438 283.683594 C 526.105469 283.53125 526.410156 283.53125 526.714844 283.53125 C 527.015625 283.53125 527.171875 283.683594 527.472656 283.988281 C 527.777344 284.292969 528.082031 284.75 528.386719 285.207031 C 529.753906 287.640625 530.214844 289.769531 529.90625 291.597656 C 529.753906 292.207031 529.453125 292.664063 529.296875 293.117188 C 528.996094 293.574219 528.691406 293.878906 528.386719 294.183594 C 528.234375 294.488281 527.929688 294.792969 527.777344 294.945313 C 527.625 295.25 527.625 295.402344 527.777344 295.554688 C 527.929688 295.859375 528.386719 295.859375 529.144531 295.402344 Z M 503.132813 253.859375 C 501.765625 254.621094 500.851563 255.382813 500.242188 256.296875 C 499.632813 257.054688 499.023438 257.96875 498.871094 258.882813 C 498.566406 259.796875 498.414063 260.859375 498.414063 261.773438 C 498.265625 262.839844 498.265625 264.054688 498.265625 265.121094 C 498.414063 267.402344 498.113281 269.230469 497.503906 270.601563 C 496.894531 272.121094 495.984375 273.1875 494.613281 273.945313 C 493.855469 274.402344 493.09375 274.707031 492.332031 274.707031 C 491.570313 274.859375 490.8125 274.859375 490.050781 274.707031 C 489.289063 274.554688 488.679688 274.253906 488.070313 273.796875 C 487.464844 273.488281 487.007813 272.882813 486.703125 272.273438 C 485.941406 271.207031 485.789063 269.839844 486.09375 268.46875 C 486.246094 266.949219 487.007813 265.578125 488.222656 264.359375 C 488.679688 263.902344 488.984375 263.601563 489.289063 263.296875 C 489.59375 263.144531 489.898438 262.839844 490.203125 262.6875 C 490.507813 262.382813 490.660156 262.230469 490.8125 262.078125 L 490.8125 261.46875 C 490.507813 261.011719 489.898438 261.164063 488.984375 261.621094 C 488.984375 261.621094 488.835938 261.773438 488.679688 261.773438 C 488.527344 261.925781 488.222656 262.078125 487.921875 262.382813 C 487.464844 262.535156 487.007813 262.839844 486.550781 262.992188 C 486.09375 263.296875 485.640625 263.601563 485.03125 263.75 C 483.8125 264.511719 483.203125 265.730469 483.355469 267.253906 C 483.355469 268.773438 483.964844 270.601563 485.03125 272.425781 C 485.789063 273.644531 486.703125 274.707031 487.769531 275.46875 C 488.679688 276.230469 489.898438 276.6875 491.113281 276.988281 C 492.332031 277.296875 493.550781 277.445313 494.917969 277.140625 C 496.285156 276.988281 497.503906 276.535156 498.871094 275.773438 C 500.089844 275.011719 501.003906 274.253906 501.765625 273.488281 C 502.523438 272.578125 503.132813 271.664063 503.4375 270.601563 C 503.894531 269.535156 504.046875 268.316406 504.199219 267.101563 C 504.199219 265.882813 504.351563 264.511719 504.199219 262.992188 C 504.199219 261.164063 504.199219 259.644531 504.652344 258.578125 C 504.960938 257.511719 505.71875 256.601563 506.9375 255.992188 C 508.304688 255.078125 509.675781 254.925781 510.894531 255.230469 C 512.109375 255.382813 513.019531 256.296875 513.78125 257.511719 C 514.390625 258.578125 514.542969 259.492188 514.238281 260.402344 C 513.933594 261.316406 513.324219 262.382813 512.414063 263.449219 C 511.957031 264.207031 511.5 264.816406 511.195313 265.121094 C 510.738281 265.425781 510.738281 265.730469 510.894531 266.1875 C 511.046875 266.492188 511.5 266.492188 512.109375 266.1875 C 515 264.511719 516.519531 263.449219 516.671875 262.992188 C 516.824219 262.6875 516.824219 261.925781 516.519531 260.859375 C 516.367188 259.644531 515.910156 258.578125 515.152344 257.207031 C 514.542969 256.144531 513.628906 255.078125 512.71875 254.316406 C 511.804688 253.710938 510.894531 253.101563 509.828125 252.796875 C 508.761719 252.492188 507.695313 252.492188 506.480469 252.644531 C 505.414063 252.796875 504.199219 253.253906 503.132813 253.859375 M 463.429688 177.324219 C 464.039063 176.867188 464.644531 176.714844 464.949219 176.5625 C 465.253906 176.5625 465.558594 176.714844 466.015625 177.019531 C 466.164063 177.324219 466.472656 177.476563 466.472656 177.777344 C 466.621094 177.929688 466.773438 178.234375 466.925781 178.386719 C 467.078125 178.539063 467.230469 178.691406 467.382813 178.84375 C 467.535156 178.84375 467.6875 178.84375 467.992188 178.691406 C 468.296875 178.386719 468.449219 178.085938 468.144531 177.628906 C 467.992188 177.476563 467.6875 177.019531 467.230469 176.410156 C 466.621094 175.800781 466.015625 174.734375 465.40625 173.519531 C 464.644531 172.300781 464.039063 171.234375 463.882813 170.476563 C 463.578125 169.714844 463.277344 169.257813 463.121094 168.953125 C 462.972656 168.496094 462.667969 168.496094 462.210938 168.648438 C 461.90625 168.800781 461.90625 168.953125 461.753906 169.105469 C 461.753906 169.257813 461.90625 169.410156 461.90625 169.5625 C 462.058594 169.867188 462.058594 170.019531 462.210938 170.324219 C 462.363281 170.476563 462.515625 170.78125 462.515625 171.234375 C 462.667969 171.691406 462.667969 172.148438 462.515625 172.300781 C 462.363281 172.605469 461.90625 172.910156 461.144531 173.367188 L 445.78125 182.191406 C 444.414063 182.953125 443.195313 183.714844 442.28125 184.472656 C 441.21875 185.234375 440.609375 186.148438 440 187.214844 C 439.390625 188.582031 439.089844 189.953125 439.390625 191.625 C 439.546875 193.148438 440.304688 194.820313 441.371094 196.648438 C 442.28125 198.320313 443.347656 199.691406 444.714844 200.453125 C 445.933594 201.363281 447.304688 201.820313 448.671875 201.820313 C 450.039063 201.820313 451.257813 201.515625 452.476563 200.90625 C 453.691406 200.453125 455.0625 199.691406 456.582031 198.777344 L 467.382813 192.539063 C 468.449219 191.929688 469.359375 191.472656 470.121094 191.015625 C 470.882813 190.714844 471.488281 190.410156 472.097656 190.257813 C 472.554688 190.105469 473.011719 190.105469 473.46875 190.257813 C 473.773438 190.410156 474.078125 190.714844 474.382813 191.167969 C 474.535156 191.625 474.839844 191.929688 474.988281 192.082031 C 475.140625 192.234375 475.445313 192.234375 475.597656 192.082031 C 476.054688 191.777344 476.054688 191.320313 475.75 190.714844 C 475.597656 190.5625 475.445313 190.257813 474.988281 189.648438 C 474.6875 189.191406 474.382813 188.582031 473.925781 187.820313 C 473.46875 187.0625 473.164063 186.453125 472.859375 185.996094 C 472.710938 185.386719 472.402344 185.082031 472.253906 184.777344 C 471.945313 184.320313 471.644531 184.171875 471.1875 184.472656 C 471.035156 184.472656 470.882813 184.777344 470.882813 184.929688 C 471.035156 185.082031 471.035156 185.386719 471.1875 185.691406 C 471.339844 185.84375 471.339844 186.148438 471.488281 186.453125 C 471.644531 186.757813 471.644531 187.0625 471.644531 187.363281 C 471.488281 187.820313 471.035156 188.429688 470.273438 189.039063 C 469.359375 189.648438 468.144531 190.410156 466.472656 191.320313 L 455.820313 197.410156 C 454.300781 198.320313 453.085938 199.082031 451.867188 199.539063 C 450.800781 200.148438 449.734375 200.300781 448.519531 200.300781 C 446.390625 199.996094 444.714844 198.777344 443.347656 196.496094 C 442.589844 195.277344 442.28125 194.214844 442.128906 193.300781 C 442.128906 192.386719 442.28125 191.472656 442.738281 190.714844 C 443.195313 189.800781 443.804688 189.039063 444.714844 188.277344 C 445.628906 187.667969 446.847656 186.910156 448.214844 186.148438 Z M 424.789063 166.0625 C 425.703125 166.976563 427.070313 167.738281 428.4375 168.191406 C 429.808594 168.800781 431.328125 168.953125 433.003906 169.105469 C 434.523438 169.105469 436.195313 168.953125 438.023438 168.496094 C 439.695313 168.039063 441.519531 167.28125 443.195313 166.367188 C 445.171875 165.148438 446.996094 163.628906 448.367188 161.953125 C 449.734375 160.28125 450.800781 158.605469 451.410156 156.628906 C 452.019531 154.800781 452.320313 152.976563 452.320313 150.996094 C 452.171875 149.171875 451.5625 147.347656 450.648438 145.671875 C 449.734375 143.996094 448.367188 142.628906 446.847656 141.5625 C 445.171875 140.5 443.347656 139.738281 441.519531 139.433594 C 439.546875 138.976563 437.414063 138.976563 435.285156 139.433594 C 433.152344 139.738281 431.023438 140.5 429.046875 141.714844 C 427.222656 142.78125 425.703125 143.847656 424.484375 145.214844 C 423.269531 146.585938 422.203125 147.953125 421.441406 149.476563 C 420.679688 150.996094 420.070313 152.519531 419.921875 154.347656 C 419.769531 156.019531 419.769531 157.695313 420.222656 159.367188 L 420.378906 160.128906 C 420.527344 160.433594 420.527344 160.585938 420.378906 160.738281 C 420.378906 160.738281 420.222656 160.890625 420.070313 161.039063 L 419.160156 161.804688 C 418.246094 162.5625 417.636719 163.324219 417.183594 164.390625 C 416.726563 165.453125 416.421875 166.519531 416.269531 167.738281 C 416.269531 168.800781 416.421875 170.171875 416.726563 171.390625 C 417.027344 172.757813 417.484375 173.976563 418.246094 175.191406 C 419.007813 176.714844 419.921875 177.777344 420.832031 178.386719 C 421.59375 178.996094 422.203125 179.148438 422.660156 178.996094 C 422.964844 178.84375 422.964844 178.539063 422.8125 178.386719 C 422.8125 178.234375 422.660156 178.085938 422.355469 177.929688 C 422.050781 177.628906 421.59375 177.324219 421.289063 176.714844 C 420.984375 175.953125 420.679688 175.34375 420.527344 174.433594 L 420.527344 171.691406 C 420.679688 170.78125 420.832031 169.867188 421.136719 168.953125 C 421.59375 168.039063 421.898438 167.128906 422.503906 166.367188 L 422.964844 165.453125 C 423.113281 165.453125 423.113281 165.304688 423.113281 165.304688 L 423.269531 165.148438 C 423.421875 164.996094 423.570313 165.148438 423.875 165.304688 Z M 449.433594 146.128906 C 450.039063 147.195313 450.34375 148.410156 450.191406 149.78125 C 450.191406 151.148438 449.734375 152.519531 448.976563 153.890625 C 448.214844 155.257813 446.996094 156.78125 445.628906 158.152344 C 444.109375 159.519531 442.28125 160.890625 440.152344 162.105469 C 438.023438 163.324219 436.195313 164.238281 434.371094 164.695313 C 432.546875 165.148438 430.871094 165.453125 429.351563 165.304688 C 427.832031 165.304688 426.613281 164.996094 425.550781 164.390625 C 424.332031 163.78125 423.570313 162.867188 422.964844 161.804688 C 422.355469 160.738281 422.050781 159.519531 422.050781 158.152344 C 422.050781 156.78125 422.503906 155.410156 423.269531 154.042969 C 424.027344 152.671875 425.246094 151.300781 426.765625 149.78125 C 428.285156 148.410156 430.113281 147.042969 432.242188 145.824219 C 434.21875 144.605469 436.195313 143.847656 438.023438 143.238281 C 439.847656 142.78125 441.519531 142.476563 442.890625 142.628906 C 444.414063 142.628906 445.628906 142.933594 446.847656 143.542969 C 447.910156 144.152344 448.824219 145.0625 449.433594 146.128906 "/>
<path style=" stroke:none;fill-rule:evenodd;fill:rgb(13.299561%,11.799622%,12.199402%);fill-opacity:1;" d="M 480.464844 214.144531 L 472.859375 218.558594 C 472.707031 218.558594 472.554688 218.710938 472.402344 218.710938 L 472.097656 218.710938 C 471.945313 218.558594 471.945313 218.558594 471.796875 218.40625 L 469.359375 213.992188 C 469.207031 213.839844 469.207031 213.6875 469.359375 213.6875 L 469.511719 213.6875 C 469.664063 213.535156 469.816406 213.535156 469.96875 213.535156 L 480.3125 213.535156 C 480.617188 213.535156 480.769531 213.535156 480.769531 213.6875 C 480.921875 213.839844 480.769531 213.839844 480.464844 214.144531 M 488.832031 214.601563 C 489.441406 214.144531 489.898438 213.992188 490.355469 213.6875 C 490.808594 213.535156 490.808594 213.234375 490.65625 212.929688 C 490.507813 212.777344 490.355469 212.625 490.050781 212.625 C 489.746094 212.625 489.441406 212.472656 488.984375 212.472656 L 458.40625 211.710938 C 457.34375 211.710938 456.429688 211.558594 455.671875 211.558594 C 454.910156 211.558594 454.300781 211.253906 453.691406 210.949219 C 453.386719 210.796875 453.082031 210.644531 452.929688 210.34375 C 452.777344 210.035156 452.628906 209.886719 452.476563 209.734375 C 452.320313 209.429688 452.171875 209.277344 452.019531 209.125 C 451.714844 208.972656 451.5625 208.972656 451.257813 209.125 C 450.800781 209.125 450.800781 209.429688 451.105469 210.035156 C 451.257813 210.34375 451.5625 210.796875 451.867188 211.253906 C 452.320313 211.710938 452.628906 212.167969 452.929688 212.777344 C 453.539063 213.839844 453.996094 214.601563 454.148438 215.210938 C 454.453125 215.972656 454.757813 216.429688 454.910156 216.730469 C 455.214844 217.1875 455.519531 217.339844 455.972656 217.339844 C 456.277344 217.1875 456.429688 217.035156 456.429688 216.730469 C 456.429688 216.429688 456.277344 215.972656 455.972656 215.363281 C 455.820313 214.90625 455.820313 214.601563 455.972656 214.296875 C 455.972656 214.144531 456.277344 213.992188 456.734375 213.839844 C 457.34375 213.6875 458.863281 213.6875 461.144531 213.535156 L 466.320313 213.535156 C 466.472656 213.535156 466.621094 213.6875 466.773438 213.6875 C 466.925781 213.839844 466.925781 213.839844 467.078125 213.992188 L 470.121094 219.320313 C 470.425781 219.777344 470.425781 220.078125 470.121094 220.078125 L 464.492188 223.429688 C 463.578125 223.882813 462.820313 224.1875 462.515625 224.339844 C 461.90625 224.339844 461.601563 224.339844 461.296875 224.1875 C 460.992188 224.035156 460.539063 223.582031 460.234375 222.820313 C 459.777344 222.210938 459.472656 221.90625 458.863281 222.058594 C 458.40625 222.210938 458.40625 222.515625 458.714844 222.972656 C 458.863281 223.277344 459.167969 223.730469 459.625 224.492188 C 460.234375 225.253906 460.839844 226.167969 461.449219 227.382813 C 462.058594 228.296875 462.363281 229.058594 462.667969 229.667969 C 462.820313 230.277344 463.121094 230.730469 463.277344 231.1875 C 463.730469 231.796875 464.039063 232.101563 464.644531 231.949219 C 464.949219 231.796875 464.949219 231.644531 464.796875 231.339844 C 464.644531 230.886719 464.644531 230.578125 464.796875 229.972656 C 464.949219 229.363281 465.253906 228.753906 465.863281 228.296875 C 466.320313 227.992188 467.230469 227.382813 468.144531 226.777344 "/>
<path style=" stroke:none;fill-rule:evenodd;fill:rgb(13.299561%,11.799622%,12.199402%);fill-opacity:1;" d="M 493.550781 225.558594 L 493.703125 225.558594 C 494.15625 225.253906 494.460938 224.949219 494.613281 224.796875 C 494.765625 224.492188 494.613281 224.1875 494.308594 223.582031 C 494.15625 223.277344 493.703125 222.363281 492.789063 220.992188 C 491.878906 219.625 490.660156 217.644531 489.136719 215.058594 C 488.070313 213.082031 488.835938 214.300781 488.226563 213.234375 C 487.617188 212.167969 488.070313 213.386719 487.921875 213.082031 C 487.617188 212.625 487.3125 212.472656 486.855469 212.777344 C 486.703125 212.929688 486.550781 213.082031 486.550781 213.082031 C 486.550781 213.234375 486.550781 213.386719 486.703125 213.691406 C 486.703125 213.84375 486.855469 213.992188 487.007813 214.300781 C 487.160156 214.449219 487.160156 214.753906 487.160156 215.058594 C 487.3125 215.515625 486.550781 213.992188 486.398438 214.300781 C 486.09375 214.449219 485.789063 214.753906 485.03125 215.210938 L 465.863281 226.320313 C 464.949219 226.777344 464.339844 227.082031 463.882813 227.234375 C 463.429688 227.234375 462.972656 227.082031 462.515625 226.472656 C 462.058594 226.015625 461.753906 225.558594 461.601563 225.253906 C 461.296875 224.796875 460.996094 224.796875 460.6875 224.949219 C 460.230469 225.253906 460.230469 225.710938 460.539063 226.320313 C 460.6875 226.472656 460.996094 226.929688 461.449219 227.535156 C 461.90625 228.144531 462.515625 229.210938 463.277344 230.429688 C 464.949219 233.320313 464.644531 232.863281 465.558594 234.839844 C 466.472656 236.667969 467.230469 238.1875 467.6875 239.101563 C 467.992188 239.40625 468.144531 239.558594 468.144531 239.710938 C 468.296875 239.863281 468.449219 240.015625 468.601563 240.015625 C 468.753906 240.015625 468.902344 240.015625 469.210938 239.863281 C 469.359375 239.863281 469.664063 239.710938 469.96875 239.558594 L 474.382813 237.730469 C 474.535156 237.578125 474.839844 237.429688 474.988281 237.429688 L 475.140625 237.277344 C 475.292969 237.277344 475.292969 237.125 475.292969 236.972656 L 475.292969 236.667969 C 475.140625 236.363281 474.6875 236.210938 473.925781 236.210938 C 473.164063 236.363281 472.253906 236.363281 471.1875 236.210938 C 470.425781 236.210938 469.816406 236.058594 469.359375 235.90625 C 468.753906 235.753906 468.296875 235.449219 467.992188 235.144531 C 467.535156 234.839844 467.078125 234.386719 466.773438 233.929688 C 466.320313 233.320313 466.015625 232.710938 465.558594 232.101563 C 465.253906 231.492188 464.949219 230.886719 464.796875 230.429688 C 464.644531 229.972656 464.644531 229.667969 464.644531 229.363281 C 464.644531 228.90625 464.796875 228.601563 465.101563 228.296875 C 465.40625 227.992188 465.863281 227.6875 466.472656 227.382813 L 475.140625 222.363281 C 475.445313 222.210938 475.75 222.210938 475.902344 222.210938 C 476.054688 222.210938 476.207031 222.363281 476.359375 222.820313 L 477.421875 224.644531 C 478.03125 225.558594 478.335938 226.472656 478.640625 227.082031 C 478.792969 227.6875 478.640625 228.449219 478.183594 229.210938 C 477.878906 229.667969 477.574219 229.972656 477.269531 230.277344 C 477.121094 230.734375 476.816406 230.886719 476.511719 231.1875 C 476.359375 231.339844 476.207031 231.644531 476.054688 231.796875 L 476.054688 232.40625 C 476.359375 232.710938 476.664063 232.710938 477.121094 232.40625 C 477.421875 232.253906 477.726563 232.101563 478.335938 231.644531 C 478.945313 231.339844 479.703125 230.734375 480.617188 230.277344 C 481.53125 229.820313 482.289063 229.363281 483.050781 229.058594 C 483.8125 228.601563 484.421875 228.296875 485.03125 227.992188 C 485.335938 227.839844 485.488281 227.535156 485.183594 227.234375 C 485.183594 226.929688 484.878906 226.777344 484.726563 226.929688 C 484.574219 226.929688 484.269531 226.929688 483.964844 227.082031 C 483.660156 227.082031 483.355469 227.234375 483.050781 227.234375 C 482.597656 227.234375 482.289063 227.234375 481.835938 227.082031 C 481.53125 227.082031 481.074219 226.777344 480.464844 226.167969 C 480.007813 225.558594 479.398438 224.796875 478.945313 223.886719 L 477.726563 221.90625 C 477.574219 221.449219 477.421875 221.296875 477.574219 221.144531 C 477.574219 220.992188 477.878906 220.839844 478.183594 220.6875 L 485.183594 216.582031 C 485.640625 216.429688 486.09375 216.125 486.398438 215.972656 C 486.703125 215.820313 487.007813 215.820313 487.3125 215.820313 C 487.617188 215.972656 487.921875 216.125 488.226563 216.277344 C 488.378906 216.582031 488.679688 217.035156 489.136719 217.644531 C 490.507813 219.929688 490.964844 222.058594 490.507813 223.886719 C 490.507813 224.492188 490.203125 224.949219 490.050781 225.40625 C 489.746094 225.863281 489.441406 226.167969 489.289063 226.472656 C 488.984375 226.777344 488.835938 226.929688 488.679688 227.234375 C 488.527344 227.382813 488.527344 227.6875 488.679688 227.839844 C 488.835938 228.144531 489.289063 228.144531 490.050781 227.6875 "/>
</g>
</svg>
